#!OML:ASF F:\VICON\USERDATA\INSTALL\rory3\rory3.ASF
:FULLY-SPECIFIED
:DEGREES
3847
root 4.22302 17.8579 -6.78146 1440.14 107.933 -2.3213
lowerback 12.8007 -5.46073 -6.16351
upperback 1.90281 -7.73841 4.09815
thorax -3.70835 -3.71473 8.96781
lowerneck 8.17322 -23.0826 -16.8527
upperneck 33.0504 -34.615 11.5552
head 15.7952 -16.0946 2.25677
rclavicle -1.59028e-014 -4.92986e-014
rhumerus -33.2233 -9.06735 -82.6723
rradius 41.8667
rwrist -1.43745
rhand -13.0912 7.79481
rfingers 7.12502
rthumb 13.0052 -21.7798
lclavicle -1.59028e-014 -4.92986e-014
lhumerus -38.2859 12.4414 74.7376
lradius 31.0337
lwrist -1.70016
lhand -19.2362 27.8732
lfingers 7.12502
lthumb 7.07711 57.7349
rfemur -3.23834 11.0139 22.8957
rtibia 28.1674
rfoot -17.0599 -4.07058
rtoes -2.12936
lfemur -22.8496 -0.832289 -16.915
ltibia 24.1298
lfoot 184.099 -198.37
ltoes 10.2678
3848
root 4.10647 17.8535 -6.69824 1440.54 108.065 -2.11075
lowerback 12.9148 -5.42163 -6.11029
upperback 1.89612 -7.68375 4.08151
thorax -3.79806 -3.68208 8.92961
lowerneck 8.30974 -23.1219 -16.8176
upperneck 33.0717 -34.6912 11.6233
head 15.8087 -16.1272 2.27657
rclavicle -3.90612e-014 -1.43125e-014
rhumerus -33.1243 -8.76977 -83.0323
rradius 42.5332
rwrist -1.68009
rhand -13.2653 7.623
rfingers 7.12502
rthumb 12.8374 -21.9622
lclavicle -3.90612e-014 -1.43125e-014
lhumerus -38.2265 12.4735 74.579
lradius 30.5976
lwrist -1.80537
lhand -19.1874 28.1834
lfingers 7.12502
lthumb 7.12429 58.0435
rfemur -3.48868 10.7324 23.0684
rtibia 27.4242
rfoot -17.4222 -4.19151
rtoes 0.300355
lfemur -23.2694 -1.10898 -16.4607
ltibia 23.4614
lfoot 185.208 -198.344
ltoes 11.5638
3849
root 3.99138 17.8522 -6.61531 1441.08 108.283 -1.74551
lowerback 12.9655 -5.43031 -5.98328
upperback 1.92661 -7.67795 4.05954
thorax -3.81474 -3.67938 8.83792
lowerneck 8.48647 -23.1593 -16.6786
upperneck 32.9475 -34.7419 11.6901
head 15.7097 -16.1546 2.3063
rclavicle -4.33351e-014 1.35174e-014
rhumerus -33.0048 -8.3137 -83.4984
rradius 43.2106
rwrist -1.94744
rhand -13.6411 7.5844
rfingers 7.12502
rthumb 12.4752 -22.0233
lclavicle -4.33351e-014 1.35174e-014
lhumerus -38.0324 12.5382 74.4347
lradius 30.0449
lwrist -1.96438
lhand -19.0958 28.0754
lfingers 7.12502
lthumb 7.21269 57.9325
rfemur -3.88524 10.1453 23.2788
rtibia 26.9108
rfoot -17.7048 -4.3096
rtoes 1.74856
lfemur -23.664 -1.57161 -15.9024
ltibia 22.6978
lfoot 186.237 -198.294
ltoes 11.9482
3850
root 3.87245 17.8468 -6.52764 1441.27 108.537 -1.71978
lowerback 13.1318 -5.43037 -6.04373
upperback 1.96441 -7.68944 4.06079
thorax -3.85471 -3.68181 8.8932
lowerneck 8.50618 -23.204 -16.6103
upperneck 32.9142 -34.799 11.7078
head 15.6904 -16.1781 2.29649
rclavicle 4.60187e-014 -5.1684e-015
rhumerus -32.7924 -7.95349 -83.8434
rradius 43.7591
rwrist -1.88811
rhand -13.81 7.87833
rfingers 7.12502
rthumb 12.3124 -21.7392
lclavicle 4.60187e-014 -5.1684e-015
lhumerus -37.7744 12.7621 74.3737
lradius 29.4501
lwrist -2.17311
lhand -19.21 27.697
lfingers 7.12502
lthumb 7.10246 57.5578
rfemur -4.47344 9.59406 23.4128
rtibia 26.7312
rfoot -17.846 -4.65371
rtoes 1.9102
lfemur -23.9578 -2.16232 -15.3975
ltibia 21.747
lfoot 187.38 -197.943
ltoes 12.9285
3851
root 3.74427 17.8369 -6.43632 1441.36 108.888 -1.75958
lowerback 13.5452 -5.45359 -6.19518
upperback 1.93567 -7.75125 4.1384
thorax -4.06712 -3.6957 9.12709
lowerneck 8.47717 -23.2323 -16.6956
upperneck 32.9389 -34.8304 11.6777
head 15.7262 -16.2009 2.27601
rclavicle -5.82439e-014 1.55052e-014
rhumerus -32.5061 -7.78356 -84.0287
rradius 44.1548
rwrist -1.62013
rhand -13.8892 8.38933
rfingers 7.12502
rthumb 12.236 -21.2327
lclavicle -5.82439e-014 1.55052e-014
lhumerus -37.5689 13.0205 74.414
lradius 28.9169
lwrist -2.48843
lhand -19.0743 27.6423
lfingers 7.12502
lthumb 7.23348 57.4987
rfemur -5.1895 9.34881 23.513
rtibia 26.8974
rfoot -17.9525 -4.93428
rtoes 3.27604
lfemur -24.1754 -2.59375 -14.9708
ltibia 20.6196
lfoot 188.464 -197.732
ltoes 12.3559
3852
root 3.61849 17.8335 -6.34893 1441.37 109.123 -1.92617
lowerback 13.8003 -5.45029 -6.31856
upperback 1.91821 -7.77394 4.14855
thorax -4.20216 -3.6959 9.24616
lowerneck 8.5181 -23.2389 -16.7233
upperneck 32.9791 -34.8279 11.6449
head 15.7364 -16.2083 2.27015
rclavicle -3.20043e-014 1.39149e-014
rhumerus -32.3177 -7.39272 -84.3833
rradius 44.7458
rwrist -1.73423
rhand -13.9746 8.63565
rfingers 7.12502
rthumb 12.1536 -20.9913
lclavicle -3.20043e-014 1.39149e-014
lhumerus -37.3574 13.5716 74.2122
lradius 28.4276
lwrist -3.35793
lhand -18.8456 27.5334
lfingers 7.12502
lthumb 7.45414 57.382
rfemur -6.0648 9.27564 23.5024
rtibia 27.366
rfoot -18.0175 -5.00242
rtoes 4.63203
lfemur -24.3081 -2.95344 -14.5897
ltibia 19.4365
lfoot 188.936 -197.455
ltoes 9.36459
3853
root 3.49984 17.8362 -6.26591 1441.61 109.205 -1.83225
lowerback 13.859 -5.43606 -6.30323
upperback 1.98864 -7.75502 4.08697
thorax -4.17372 -3.68928 9.17
lowerneck 8.60113 -23.2492 -16.5438
upperneck 33.0419 -34.8254 11.618
head 15.7054 -16.1987 2.26151
rclavicle 4.48259e-014 -2.8625e-014
rhumerus -32.1049 -6.82982 -84.9163
rradius 45.3918
rwrist -1.87244
rhand -14.0771 8.69816
rfingers 7.12502
rthumb 12.0548 -20.9346
lclavicle 4.48259e-014 -2.8625e-014
lhumerus -37.127 14.437 73.7207
lradius 28.0909
lwrist -4.67015
lhand -18.9718 27.656
lfingers 7.12502
lthumb 7.33235 57.509
rfemur -7.10469 9.2722 23.5744
rtibia 28.0593
rfoot -17.9015 -4.97832
rtoes 5.36682
lfemur -24.2978 -3.49188 -14.0471
ltibia 18.2867
lfoot 188.737 -196.348
ltoes 6.51087
3854
root 3.38523 17.8352 -6.18138 1442.04 109.249 -1.52626
lowerback 13.8842 -5.41742 -6.33691
upperback 2.06679 -7.73075 4.10258
thorax -4.10161 -3.68208 9.19935
lowerneck 8.83599 -23.1908 -16.5894
upperneck 33.0819 -34.7748 11.7282
head 15.7157 -16.1884 2.34598
rclavicle -1.74931e-014 2.46493e-014
rhumerus -31.9297 -6.09064 -85.2881
rradius 45.9846
rwrist -1.8572
rhand -14.1882 8.7294
rfingers 7.12502
rthumb 11.9477 -20.9096
lclavicle -1.74931e-014 2.46493e-014
lhumerus -36.907 15.073 73.4687
lradius 27.7784
lwrist -5.66304
lhand -19.0909 27.9271
lfingers 7.12502
lthumb 7.21742 57.784
rfemur -8.2817 9.0463 23.745
rtibia 28.8322
rfoot -17.5396 -4.93485
rtoes 4.34797
lfemur -24.2676 -4.16673 -13.3956
ltibia 17.2998
lfoot 188.017 -194.639
ltoes 4.27672
3855
root 3.26931 17.834 -6.10566 1442.03 109.328 -1.72755
lowerback 13.8735 -5.40777 -6.43378
upperback 2.10136 -7.73013 4.10632
thorax -4.04509 -3.68477 9.25338
lowerneck 8.88326 -23.1396 -16.6543
upperneck 33.2443 -34.7017 11.7041
head 15.7856 -16.159 2.36157
rclavicle -1.82186e-013 5.1684e-014
rhumerus -31.8558 -5.17254 -85.549
rradius 46.6772
rwrist -1.95582
rhand -14.4224 8.64046
rfingers 7.12502
rthumb 11.7218 -21.0116
lclavicle -1.82186e-013 5.1684e-014
lhumerus -36.6432 15.5789 73.4415
lradius 27.3485
lwrist -6.48777
lhand -18.8675 27.918
lfingers 7.12502
lthumb 7.43307 57.7674
rfemur -9.47425 8.51826 23.6567
rtibia 29.5145
rfoot -17.1933 -4.61502
rtoes 2.96772
lfemur -24.4485 -4.83872 -13.0309
ltibia 16.7689
lfoot 186.583 -193.207
ltoes -0.0376917
3856
root 3.14867 17.8343 -6.0436 1442.47 109.613 -1.313
lowerback 13.9951 -5.48951 -6.07683
upperback 2.19069 -7.77969 4.11543
thorax -4.05341 -3.71181 9.0767
lowerneck 8.76401 -23.1402 -16.5865
upperneck 33.4202 -34.6632 11.5795
head 15.8411 -16.1285 2.30261
rclavicle 7.32522e-014 -4.53229e-014
rhumerus -31.6691 -4.22081 -85.8321
rradius 47.2561
rwrist -2.05261
rhand -14.7767 8.59856
rfingers 7.12502
rthumb 11.3802 -21.0726
lclavicle 7.32522e-014 -4.53229e-014
lhumerus -36.1879 16.0184 73.5175
lradius 26.7993
lwrist -7.28983
lhand -18.6506 27.5488
lfingers 7.12502
lthumb 7.64243 57.3907
rfemur -10.3181 7.87654 23.7491
rtibia 30.0199
rfoot -17.044 -4.09328
rtoes 3.06372
lfemur -24.7391 -5.22506 -12.709
ltibia 16.8931
lfoot 184.731 -192.444
ltoes -5.78679
3857
root 3.03636 17.8333 -5.97318 1443.05 109.783 -0.61027
lowerback 14.1726 -5.48349 -5.75271
upperback 2.307 -7.71708 4.12946
thorax -4.07974 -3.68146 8.91525
lowerneck 8.90035 -23.1535 -16.5774
upperneck 33.4455 -34.67 11.5683
head 15.8259 -16.1411 2.31391
rclavicle -5.22804e-014 -1.03368e-014
rhumerus -31.471 -3.58924 -86.0077
rradius 47.6653
rwrist -2.02006
rhand -14.4703 8.9606
rfingers 7.12502
rthumb 11.6756 -20.6941
lclavicle -5.22804e-014 -1.03368e-014
lhumerus -35.7518 15.9951 73.7242
lradius 26.3674
lwrist -7.78743
lhand -18.7143 27.2499
lfingers 7.12502
lthumb 7.58089 57.094
rfemur -10.8924 7.72948 24.029
rtibia 30.3811
rfoot -16.8134 -3.80368
rtoes 4.36174
lfemur -24.9326 -5.01351 -12.4661
ltibia 17.5252
lfoot 182.586 -192.096
ltoes -11.8228
3858
root 2.93163 17.8316 -5.89277 1443.57 109.77 -0.00667395
lowerback 14.2406 -5.41207 -5.69538
upperback 2.41652 -7.60607 4.16639
thorax -4.0228 -3.63037 8.90819
lowerneck 9.0679 -23.1287 -16.5585
upperneck 33.4949 -34.6043 11.4986
head 15.7836 -16.1279 2.32681
rclavicle 2.76311e-014 6.36111e-015
rhumerus -31.3503 -3.07468 -86.1237
rradius 48.0444
rwrist -1.91454
rhand -13.9183 9.55234
rfingers 7.12502
rthumb 12.2079 -20.0714
lclavicle 2.76311e-014 6.36111e-015
lhumerus -35.4553 15.9995 73.8964
lradius 26.0975
lwrist -8.2233
lhand -18.7712 27.0778
lfingers 7.12502
lthumb 7.52601 56.924
rfemur -11.4681 7.76577 24.3305
rtibia 30.6627
rfoot -16.4639 -3.65287
rtoes 4.98932
lfemur -25.1096 -4.40674 -12.3219
ltibia 18.4681
lfoot 180.625 -191.824
ltoes -14.0885
3859
root 2.82809 17.836 -5.81237 1443.46 109.753 -0.0627441
lowerback 14.2508 -5.37034 -5.91964
upperback 2.54727 -7.57888 4.1669
thorax -3.8632 -3.62582 9.02153
lowerneck 9.04499 -23.0668 -16.4424
upperneck 33.6642 -34.4396 11.276
head 15.7532 -16.0558 2.27697
rclavicle 1.32888e-013 -2.18663e-014
rhumerus -31.212 -2.38053 -86.3163
rradius 48.4311
rwrist -1.75092
rhand -13.736 9.79406
rfingers 7.12502
rthumb 12.3837 -19.8191
lclavicle 1.32888e-013 -2.18663e-014
lhumerus -35.1929 16.4329 73.9141
lradius 25.8608
lwrist -9.0392
lhand -18.5572 27.1591
lfingers 7.12502
lthumb 7.73251 56.9977
rfemur -12.0126 7.87445 24.4125
rtibia 30.9188
rfoot -16.0892 -3.66729
rtoes 5.42336
lfemur -25.2232 -3.70991 -12.4923
ltibia 19.6047
lfoot 178.863 -191.718
ltoes -13.9466
3860
root 2.72443 17.8444 -5.73295 1442.4 109.811 -1.04544
lowerback 14.2853 -5.3274 -6.41975
upperback 2.68522 -7.59939 4.07482
thorax -3.67582 -3.64593 9.19872
lowerneck 9.05463 -22.9723 -16.3667
upperneck 33.823 -34.2521 11.1332
head 15.7395 -15.9726 2.26747
rclavicle -3.88624e-014 -1.15295e-014
rhumerus -31.0912 -1.64052 -86.5081
rradius 48.8159
rwrist -1.53787
rhand -13.6735 9.70721
rfingers 7.12502
rthumb 12.444 -19.9023
lclavicle -3.88624e-014 -1.15295e-014
lhumerus -34.9493 16.7929 73.9991
lradius 25.6938
lwrist -9.71463
lhand -18.4491 27.1996
lfingers 7.12502
lthumb 7.83685 57.0344
rfemur -12.47 7.99287 24.1548
rtibia 31.1696
rfoot -15.7191 -3.74822
rtoes 6.1249
lfemur -25.2057 -3.24216 -13.03
ltibia 20.9005
lfoot 177.109 -191.589
ltoes -14.2317
